<svg width="180px" height="29px" viewBox="65 347 180 29" version="1.1" xmlns="http://www.w3.org/2000/svg" xmlns:xlink="http://www.w3.org/1999/xlink">
    <!-- Generator: Sketch 3.7 (28169) - http://www.bohemiancoding.com/sketch -->
    <desc>Created with Sketch.</desc>
    <defs></defs>
    <g id="horizontal-rule-motif" stroke="none" stroke-width="1" fill="none" fill-rule="evenodd" transform="translate(66.000000, 348.000000)">
        <g id="Logo-Copy" transform="translate(74.000000, 0.000000)">
            <g id="Group-3" transform="translate(1.687275, 0.000000)">
                <g id="Group-2" transform="translate(2.226667, 0.000000)">
                    <g id="Group" transform="translate(0.000000, 6.601132)" fill="#282463">
                        <ellipse id="Oval-2" cx="1.50536221" cy="1.63179252" rx="1.50536221" ry="1.63179252"></ellipse>
                        <ellipse id="Oval-2-Copy" cx="4.31537167" cy="1.19664785" rx="1.00357481" ry="1.08786168"></ellipse>
                        <ellipse id="Oval-2-Copy-2" cx="6.57341498" cy="1.68618561" rx="0.752681105" ry="0.815896261"></ellipse>
                        <ellipse id="Oval-2-Copy-3" cx="8.32967089" cy="2.7196542" rx="0.501787403" ry="0.543930841"></ellipse>
                    </g>
                    <g id="Group-Copy" transform="translate(6.766228, 6.060030) rotate(-337.500000) translate(-6.766228, -6.060030) translate(2.266228, 4.060030)" fill="#2C3991">
                        <ellipse id="Oval-2" cx="1.50957619" cy="1.91182586" rx="1.50536221" ry="1.63179252"></ellipse>
                        <ellipse id="Oval-2-Copy" cx="4.31958564" cy="1.47668119" rx="1.00357481" ry="1.08786168"></ellipse>
                        <ellipse id="Oval-2-Copy-2" cx="6.57762896" cy="1.96621894" rx="0.752681105" ry="0.815896261"></ellipse>
                        <ellipse id="Oval-2-Copy-3" cx="8.33388487" cy="2.99968754" rx="0.501787403" ry="0.543930841"></ellipse>
                    </g>
                    <g id="Group-Copy-2" transform="translate(9.437451, 5.079639) rotate(-315.000000) translate(-9.437451, -5.079639) translate(4.937451, 3.079639)" fill="#1B76BC">
                        <ellipse id="Oval-2" cx="1.50536221" cy="1.63179252" rx="1.50536221" ry="1.63179252"></ellipse>
                        <ellipse id="Oval-2-Copy" cx="4.31537167" cy="1.19664785" rx="1.00357481" ry="1.08786168"></ellipse>
                        <ellipse id="Oval-2-Copy-2" cx="6.57341498" cy="1.68618561" rx="0.752681105" ry="0.815896261"></ellipse>
                        <ellipse id="Oval-2-Copy-3" cx="8.32967089" cy="2.7196542" rx="0.501787403" ry="0.543930841"></ellipse>
                    </g>
                    <g id="Group-Copy-3" transform="translate(12.799897, 4.967093) rotate(-292.500000) translate(-12.799897, -4.967093) translate(8.299897, 2.967093)" fill="#29A9DE">
                        <ellipse id="Oval-2" cx="1.50957619" cy="1.91182586" rx="1.50536221" ry="1.63179252"></ellipse>
                        <ellipse id="Oval-2-Copy" cx="4.31958564" cy="1.47668119" rx="1.00357481" ry="1.08786168"></ellipse>
                        <ellipse id="Oval-2-Copy-2" cx="6.57762896" cy="1.96621894" rx="0.752681105" ry="0.815896261"></ellipse>
                        <ellipse id="Oval-2-Copy-3" cx="8.33388487" cy="2.99968754" rx="0.501787403" ry="0.543930841"></ellipse>
                    </g>
                    <g id="Group-Copy-4" transform="translate(15.393442, 6.479034) rotate(-270.000000) translate(-15.393442, -6.479034) translate(10.893442, 4.479034)" fill="#06A79C">
                        <ellipse id="Oval-2" cx="1.50536221" cy="1.63179252" rx="1.50536221" ry="1.63179252"></ellipse>
                        <ellipse id="Oval-2-Copy" cx="4.31537167" cy="1.19664785" rx="1.00357481" ry="1.08786168"></ellipse>
                        <ellipse id="Oval-2-Copy-2" cx="6.57341498" cy="1.68618561" rx="0.752681105" ry="0.815896261"></ellipse>
                        <ellipse id="Oval-2-Copy-3" cx="8.32967089" cy="2.7196542" rx="0.501787403" ry="0.543930841"></ellipse>
                    </g>
                    <g id="Group-Copy-5" transform="translate(17.756498, 8.924695) rotate(-247.500000) translate(-17.756498, -8.924695) translate(13.256498, 6.924695)" fill="#30B879">
                        <ellipse id="Oval-2" cx="1.50957619" cy="1.91182586" rx="1.50536221" ry="1.63179252"></ellipse>
                        <ellipse id="Oval-2-Copy" cx="4.31958564" cy="1.47668119" rx="1.00357481" ry="1.08786168"></ellipse>
                        <ellipse id="Oval-2-Copy-2" cx="6.57762896" cy="1.96621894" rx="0.752681105" ry="0.815896261"></ellipse>
                        <ellipse id="Oval-2-Copy-3" cx="8.33388487" cy="2.99968754" rx="0.501787403" ry="0.543930841"></ellipse>
                    </g>
                    <g id="Group-Copy-6" transform="translate(18.651520, 11.738802) rotate(-225.000000) translate(-18.651520, -11.738802) translate(14.151520, 9.738802)" fill="#066C3D">
                        <ellipse id="Oval-2" cx="1.50536221" cy="1.63179252" rx="1.50536221" ry="1.63179252"></ellipse>
                        <ellipse id="Oval-2-Copy" cx="4.31537167" cy="1.19664785" rx="1.00357481" ry="1.08786168"></ellipse>
                        <ellipse id="Oval-2-Copy-2" cx="6.57341498" cy="1.68618561" rx="0.752681105" ry="0.815896261"></ellipse>
                        <ellipse id="Oval-2-Copy-3" cx="8.32967089" cy="2.7196542" rx="0.501787403" ry="0.543930841"></ellipse>
                    </g>
                    <g id="Group-Copy-7" transform="translate(18.761557, 15.143930) rotate(-202.500000) translate(-18.761557, -15.143930) translate(14.261557, 13.143930)" fill="#009546">
                        <ellipse id="Oval-2" cx="1.50957619" cy="1.91182586" rx="1.50536221" ry="1.63179252"></ellipse>
                        <ellipse id="Oval-2-Copy" cx="4.31958564" cy="1.47668119" rx="1.00357481" ry="1.08786168"></ellipse>
                        <ellipse id="Oval-2-Copy-2" cx="6.57762896" cy="1.96621894" rx="0.752681105" ry="0.815896261"></ellipse>
                        <ellipse id="Oval-2-Copy-3" cx="8.33388487" cy="2.99968754" rx="0.501787403" ry="0.543930841"></ellipse>
                    </g>
                </g>
                <g id="Group-2-Copy" transform="translate(12.204955, 17.191748) rotate(-180.000000) translate(-12.204955, -17.191748) translate(0.204955, 7.691748)">
                    <g id="Group" transform="translate(0.000000, 6.601132)" fill="#282463">
                        <ellipse id="Oval-2" cx="1.50536221" cy="1.63179252" rx="1.50536221" ry="1.63179252"></ellipse>
                        <ellipse id="Oval-2-Copy" cx="4.31537167" cy="1.19664785" rx="1.00357481" ry="1.08786168"></ellipse>
                        <ellipse id="Oval-2-Copy-2" cx="6.57341498" cy="1.68618561" rx="0.752681105" ry="0.815896261"></ellipse>
                        <ellipse id="Oval-2-Copy-3" cx="8.32967089" cy="2.7196542" rx="0.501787403" ry="0.543930841"></ellipse>
                    </g>
                    <g id="Group-Copy" transform="translate(6.766228, 6.060030) rotate(-337.500000) translate(-6.766228, -6.060030) translate(2.266228, 4.060030)" fill="#2C3991">
                        <ellipse id="Oval-2" cx="1.50957619" cy="1.91182586" rx="1.50536221" ry="1.63179252"></ellipse>
                        <ellipse id="Oval-2-Copy" cx="4.31958564" cy="1.47668119" rx="1.00357481" ry="1.08786168"></ellipse>
                        <ellipse id="Oval-2-Copy-2" cx="6.57762896" cy="1.96621894" rx="0.752681105" ry="0.815896261"></ellipse>
                        <ellipse id="Oval-2-Copy-3" cx="8.33388487" cy="2.99968754" rx="0.501787403" ry="0.543930841"></ellipse>
                    </g>
                    <g id="Group-Copy-2" transform="translate(9.437451, 5.079639) rotate(-315.000000) translate(-9.437451, -5.079639) translate(4.937451, 3.079639)" fill="#1B76BC">
                        <ellipse id="Oval-2" cx="1.50536221" cy="1.63179252" rx="1.50536221" ry="1.63179252"></ellipse>
                        <ellipse id="Oval-2-Copy" cx="4.31537167" cy="1.19664785" rx="1.00357481" ry="1.08786168"></ellipse>
                        <ellipse id="Oval-2-Copy-2" cx="6.57341498" cy="1.68618561" rx="0.752681105" ry="0.815896261"></ellipse>
                        <ellipse id="Oval-2-Copy-3" cx="8.32967089" cy="2.7196542" rx="0.501787403" ry="0.543930841"></ellipse>
                    </g>
                    <g id="Group-Copy-3" transform="translate(12.799897, 4.967093) rotate(-292.500000) translate(-12.799897, -4.967093) translate(8.299897, 2.967093)" fill="#29A9DE">
                        <ellipse id="Oval-2" cx="1.50957619" cy="1.91182586" rx="1.50536221" ry="1.63179252"></ellipse>
                        <ellipse id="Oval-2-Copy" cx="4.31958564" cy="1.47668119" rx="1.00357481" ry="1.08786168"></ellipse>
                        <ellipse id="Oval-2-Copy-2" cx="6.57762896" cy="1.96621894" rx="0.752681105" ry="0.815896261"></ellipse>
                        <ellipse id="Oval-2-Copy-3" cx="8.33388487" cy="2.99968754" rx="0.501787403" ry="0.543930841"></ellipse>
                    </g>
                    <g id="Group-Copy-4" transform="translate(15.393442, 6.479034) rotate(-270.000000) translate(-15.393442, -6.479034) translate(10.893442, 4.479034)" fill="#06A79C">
                        <ellipse id="Oval-2" cx="1.50536221" cy="1.63179252" rx="1.50536221" ry="1.63179252"></ellipse>
                        <ellipse id="Oval-2-Copy" cx="4.31537167" cy="1.19664785" rx="1.00357481" ry="1.08786168"></ellipse>
                        <ellipse id="Oval-2-Copy-2" cx="6.57341498" cy="1.68618561" rx="0.752681105" ry="0.815896261"></ellipse>
                        <ellipse id="Oval-2-Copy-3" cx="8.32967089" cy="2.7196542" rx="0.501787403" ry="0.543930841"></ellipse>
                    </g>
                    <g id="Group-Copy-5" transform="translate(17.756498, 8.924695) rotate(-247.500000) translate(-17.756498, -8.924695) translate(13.256498, 6.924695)" fill="#30B879">
                        <ellipse id="Oval-2" cx="1.50957619" cy="1.91182586" rx="1.50536221" ry="1.63179252"></ellipse>
                        <ellipse id="Oval-2-Copy" cx="4.31958564" cy="1.47668119" rx="1.00357481" ry="1.08786168"></ellipse>
                        <ellipse id="Oval-2-Copy-2" cx="6.57762896" cy="1.96621894" rx="0.752681105" ry="0.815896261"></ellipse>
                        <ellipse id="Oval-2-Copy-3" cx="8.33388487" cy="2.99968754" rx="0.501787403" ry="0.543930841"></ellipse>
                    </g>
                    <g id="Group-Copy-6" transform="translate(18.651520, 11.738802) rotate(-225.000000) translate(-18.651520, -11.738802) translate(14.151520, 9.738802)" fill="#066C3D">
                        <ellipse id="Oval-2" cx="1.50536221" cy="1.63179252" rx="1.50536221" ry="1.63179252"></ellipse>
                        <ellipse id="Oval-2-Copy" cx="4.31537167" cy="1.19664785" rx="1.00357481" ry="1.08786168"></ellipse>
                        <ellipse id="Oval-2-Copy-2" cx="6.57341498" cy="1.68618561" rx="0.752681105" ry="0.815896261"></ellipse>
                        <ellipse id="Oval-2-Copy-3" cx="8.32967089" cy="2.7196542" rx="0.501787403" ry="0.543930841"></ellipse>
                    </g>
                    <g id="Group-Copy-7" transform="translate(18.761557, 15.143930) rotate(-202.500000) translate(-18.761557, -15.143930) translate(14.261557, 13.143930)" fill="#009546">
                        <ellipse id="Oval-2" cx="1.50957619" cy="1.91182586" rx="1.50536221" ry="1.63179252"></ellipse>
                        <ellipse id="Oval-2-Copy" cx="4.31958564" cy="1.47668119" rx="1.00357481" ry="1.08786168"></ellipse>
                        <ellipse id="Oval-2-Copy-2" cx="6.57762896" cy="1.96621894" rx="0.752681105" ry="0.815896261"></ellipse>
                        <ellipse id="Oval-2-Copy-3" cx="8.33388487" cy="2.99968754" rx="0.501787403" ry="0.543930841"></ellipse>
                    </g>
                </g>
            </g>
            <text id="{" font-family="Lato-Bold, Lato" font-size="9.98795879" font-weight="bold" fill="#104A94">
                <tspan x="0" y="16.2747731">{</tspan>
            </text>
            <text id="}" font-family="Lato-Bold, Lato" font-size="9.98795879" font-weight="bold" fill="#104A94">
                <tspan x="26.7954473" y="16.2747731">}</tspan>
            </text>
        </g>
        <path d="M0.5,12.5 L71.5,12.5" id="Line" stroke="#0B3566" stroke-linecap="square"></path>
        <path d="M106.5,12.5 L177.5,12.5" id="Line" stroke="#0B3566" stroke-linecap="square"></path>
    </g>
</svg>
