<svg id="header-logo" width="78px" height="80px" viewBox="10 0 144 128" version="1.1" xmlns="http://www.w3.org/2000/svg" xmlns:xlink="http://www.w3.org/1999/xlink">
    <!-- Generator: Sketch 3.7 (28169) - http://www.bohemiancoding.com/sketch -->
    <desc>Created with Sketch.</desc>
    <defs></defs>
    <g id="Logo" stroke="none" stroke-width="1" fill="none" fill-rule="evenodd" transform="translate(10.000000, 0.000000)">
        <g id="Group-3" transform="translate(9.716898, 0.000000)">
            <g id="Group-2" transform="translate(9.070022, 0.000000)">
                <g id="Group" transform="translate(0.000000, 31.597801)" fill="#282463">
                    <ellipse id="Oval-2" cx="7.22573861" cy="7.81094194" rx="7.22573861" ry="7.81094194"></ellipse>
                    <ellipse id="Oval-2-Copy" cx="20.713784" cy="5.72802409" rx="4.81715907" ry="5.20729463"></ellipse>
                    <ellipse id="Oval-2-Copy-2" cx="31.5523919" cy="8.07130667" rx="3.6128693" ry="3.90547097"></ellipse>
                    <ellipse id="Oval-2-Copy-3" cx="39.9824203" cy="13.0182366" rx="2.40857954" ry="2.60364731"></ellipse>
                </g>
                <g id="Group-Copy" transform="translate(32.610744, 28.440683) rotate(-337.500000) translate(-32.610744, -28.440683) translate(11.110744, 20.440683)" fill="#2C3991">
                    <ellipse id="Oval-2" cx="7.240939" cy="8.15223706" rx="7.22573861" ry="7.81094194"></ellipse>
                    <ellipse id="Oval-2-Copy" cx="20.7289844" cy="6.06931921" rx="4.81715907" ry="5.20729463"></ellipse>
                    <ellipse id="Oval-2-Copy-2" cx="31.5675923" cy="8.41260179" rx="3.6128693" ry="3.90547097"></ellipse>
                    <ellipse id="Oval-2-Copy-3" cx="39.9976207" cy="13.3595317" rx="2.40857954" ry="2.60364731"></ellipse>
                </g>
                <g id="Group-Copy-2" transform="translate(46.344603, 23.131386) rotate(-315.000000) translate(-46.344603, -23.131386) translate(24.844603, 15.131386)" fill="#1B76BC">
                    <ellipse id="Oval-2" cx="7.22573861" cy="7.81094194" rx="7.22573861" ry="7.81094194"></ellipse>
                    <ellipse id="Oval-2-Copy" cx="20.713784" cy="5.72802409" rx="4.81715907" ry="5.20729463"></ellipse>
                    <ellipse id="Oval-2-Copy-2" cx="31.5523919" cy="8.07130667" rx="3.6128693" ry="3.90547097"></ellipse>
                    <ellipse id="Oval-2-Copy-3" cx="39.9824203" cy="13.0182366" rx="2.40857954" ry="2.60364731"></ellipse>
                </g>
                <g id="Group-Copy-3" transform="translate(61.935721, 23.468384) rotate(-292.500000) translate(-61.935721, -23.468384) translate(40.435721, 15.468384)" fill="#29A9DE">
                    <ellipse id="Oval-2" cx="7.240939" cy="8.15223706" rx="7.22573861" ry="7.81094194"></ellipse>
                    <ellipse id="Oval-2-Copy" cx="20.7289844" cy="6.06931921" rx="4.81715907" ry="5.20729463"></ellipse>
                    <ellipse id="Oval-2-Copy-2" cx="31.5675923" cy="8.41260179" rx="3.6128693" ry="3.90547097"></ellipse>
                    <ellipse id="Oval-2-Copy-3" cx="39.9976207" cy="13.3595317" rx="2.40857954" ry="2.60364731"></ellipse>
                </g>
                <g id="Group-Copy-4" transform="translate(75.466143, 30.913151) rotate(-270.000000) translate(-75.466143, -30.913151) translate(53.966143, 22.913151)" fill="#06A79C">
                    <ellipse id="Oval-2" cx="7.22573861" cy="7.81094194" rx="7.22573861" ry="7.81094194"></ellipse>
                    <ellipse id="Oval-2-Copy" cx="20.713784" cy="5.72802409" rx="4.81715907" ry="5.20729463"></ellipse>
                    <ellipse id="Oval-2-Copy-2" cx="31.5523919" cy="8.07130667" rx="3.6128693" ry="3.90547097"></ellipse>
                    <ellipse id="Oval-2-Copy-3" cx="39.9824203" cy="13.0182366" rx="2.40857954" ry="2.60364731"></ellipse>
                </g>
                <g id="Group-Copy-5" transform="translate(85.800095, 42.851891) rotate(-247.500000) translate(-85.800095, -42.851891) translate(64.300095, 34.851891)" fill="#30B879">
                    <ellipse id="Oval-2" cx="7.240939" cy="8.15223706" rx="7.22573861" ry="7.81094194"></ellipse>
                    <ellipse id="Oval-2-Copy" cx="20.7289844" cy="6.06931921" rx="4.81715907" ry="5.20729463"></ellipse>
                    <ellipse id="Oval-2-Copy-2" cx="31.5675923" cy="8.41260179" rx="3.6128693" ry="3.90547097"></ellipse>
                    <ellipse id="Oval-2-Copy-3" cx="39.9976207" cy="13.3595317" rx="2.40857954" ry="2.60364731"></ellipse>
                </g>
                <g id="Group-Copy-6" transform="translate(90.713554, 57.232163) rotate(-225.000000) translate(-90.713554, -57.232163) translate(69.213554, 49.232163)" fill="#066C3D">
                    <ellipse id="Oval-2" cx="7.22573861" cy="7.81094194" rx="7.22573861" ry="7.81094194"></ellipse>
                    <ellipse id="Oval-2-Copy" cx="20.713784" cy="5.72802409" rx="4.81715907" ry="5.20729463"></ellipse>
                    <ellipse id="Oval-2-Copy-2" cx="31.5523919" cy="8.07130667" rx="3.6128693" ry="3.90547097"></ellipse>
                    <ellipse id="Oval-2-Copy-3" cx="39.9824203" cy="13.0182366" rx="2.40857954" ry="2.60364731"></ellipse>
                </g>
                <g id="Group-Copy-7" transform="translate(90.363813, 72.983985) rotate(-202.500000) translate(-90.363813, -72.983985) translate(68.863813, 64.983985)" fill="#009546">
                    <ellipse id="Oval-2" cx="7.240939" cy="8.15223706" rx="7.22573861" ry="7.81094194"></ellipse>
                    <ellipse id="Oval-2-Copy" cx="20.7289844" cy="6.06931921" rx="4.81715907" ry="5.20729463"></ellipse>
                    <ellipse id="Oval-2-Copy-2" cx="31.5675923" cy="8.41260179" rx="3.6128693" ry="3.90547097"></ellipse>
                    <ellipse id="Oval-2-Copy-3" cx="39.9976207" cy="13.3595317" rx="2.40857954" ry="2.60364731"></ellipse>
                </g>
            </g>
            <g id="Group-2-Copy" transform="translate(57.565806, 83.266056) rotate(-180.000000) translate(-57.565806, -83.266056) translate(0.565806, 38.766056)">
                <g id="Group" transform="translate(0.000000, 31.597801)" fill="#282463">
                    <ellipse id="Oval-2" cx="7.22573861" cy="7.81094194" rx="7.22573861" ry="7.81094194"></ellipse>
                    <ellipse id="Oval-2-Copy" cx="20.713784" cy="5.72802409" rx="4.81715907" ry="5.20729463"></ellipse>
                    <ellipse id="Oval-2-Copy-2" cx="31.5523919" cy="8.07130667" rx="3.6128693" ry="3.90547097"></ellipse>
                    <ellipse id="Oval-2-Copy-3" cx="39.9824203" cy="13.0182366" rx="2.40857954" ry="2.60364731"></ellipse>
                </g>
                <g id="Group-Copy" transform="translate(32.610744, 28.440683) rotate(-337.500000) translate(-32.610744, -28.440683) translate(11.110744, 20.440683)" fill="#2C3991">
                    <ellipse id="Oval-2" cx="7.240939" cy="8.15223706" rx="7.22573861" ry="7.81094194"></ellipse>
                    <ellipse id="Oval-2-Copy" cx="20.7289844" cy="6.06931921" rx="4.81715907" ry="5.20729463"></ellipse>
                    <ellipse id="Oval-2-Copy-2" cx="31.5675923" cy="8.41260179" rx="3.6128693" ry="3.90547097"></ellipse>
                    <ellipse id="Oval-2-Copy-3" cx="39.9976207" cy="13.3595317" rx="2.40857954" ry="2.60364731"></ellipse>
                </g>
                <g id="Group-Copy-2" transform="translate(46.344603, 23.131386) rotate(-315.000000) translate(-46.344603, -23.131386) translate(24.844603, 15.131386)" fill="#1B76BC">
                    <ellipse id="Oval-2" cx="7.22573861" cy="7.81094194" rx="7.22573861" ry="7.81094194"></ellipse>
                    <ellipse id="Oval-2-Copy" cx="20.713784" cy="5.72802409" rx="4.81715907" ry="5.20729463"></ellipse>
                    <ellipse id="Oval-2-Copy-2" cx="31.5523919" cy="8.07130667" rx="3.6128693" ry="3.90547097"></ellipse>
                    <ellipse id="Oval-2-Copy-3" cx="39.9824203" cy="13.0182366" rx="2.40857954" ry="2.60364731"></ellipse>
                </g>
                <g id="Group-Copy-3" transform="translate(61.935721, 23.468384) rotate(-292.500000) translate(-61.935721, -23.468384) translate(40.435721, 15.468384)" fill="#29A9DE">
                    <ellipse id="Oval-2" cx="7.240939" cy="8.15223706" rx="7.22573861" ry="7.81094194"></ellipse>
                    <ellipse id="Oval-2-Copy" cx="20.7289844" cy="6.06931921" rx="4.81715907" ry="5.20729463"></ellipse>
                    <ellipse id="Oval-2-Copy-2" cx="31.5675923" cy="8.41260179" rx="3.6128693" ry="3.90547097"></ellipse>
                    <ellipse id="Oval-2-Copy-3" cx="39.9976207" cy="13.3595317" rx="2.40857954" ry="2.60364731"></ellipse>
                </g>
                <g id="Group-Copy-4" transform="translate(75.466143, 30.913151) rotate(-270.000000) translate(-75.466143, -30.913151) translate(53.966143, 22.913151)" fill="#06A79C">
                    <ellipse id="Oval-2" cx="7.22573861" cy="7.81094194" rx="7.22573861" ry="7.81094194"></ellipse>
                    <ellipse id="Oval-2-Copy" cx="20.713784" cy="5.72802409" rx="4.81715907" ry="5.20729463"></ellipse>
                    <ellipse id="Oval-2-Copy-2" cx="31.5523919" cy="8.07130667" rx="3.6128693" ry="3.90547097"></ellipse>
                    <ellipse id="Oval-2-Copy-3" cx="39.9824203" cy="13.0182366" rx="2.40857954" ry="2.60364731"></ellipse>
                </g>
                <g id="Group-Copy-5" transform="translate(85.800095, 42.851891) rotate(-247.500000) translate(-85.800095, -42.851891) translate(64.300095, 34.851891)" fill="#30B879">
                    <ellipse id="Oval-2" cx="7.240939" cy="8.15223706" rx="7.22573861" ry="7.81094194"></ellipse>
                    <ellipse id="Oval-2-Copy" cx="20.7289844" cy="6.06931921" rx="4.81715907" ry="5.20729463"></ellipse>
                    <ellipse id="Oval-2-Copy-2" cx="31.5675923" cy="8.41260179" rx="3.6128693" ry="3.90547097"></ellipse>
                    <ellipse id="Oval-2-Copy-3" cx="39.9976207" cy="13.3595317" rx="2.40857954" ry="2.60364731"></ellipse>
                </g>
                <g id="Group-Copy-6" transform="translate(90.713554, 57.232163) rotate(-225.000000) translate(-90.713554, -57.232163) translate(69.213554, 49.232163)" fill="#066C3D">
                    <ellipse id="Oval-2" cx="7.22573861" cy="7.81094194" rx="7.22573861" ry="7.81094194"></ellipse>
                    <ellipse id="Oval-2-Copy" cx="20.713784" cy="5.72802409" rx="4.81715907" ry="5.20729463"></ellipse>
                    <ellipse id="Oval-2-Copy-2" cx="31.5523919" cy="8.07130667" rx="3.6128693" ry="3.90547097"></ellipse>
                    <ellipse id="Oval-2-Copy-3" cx="39.9824203" cy="13.0182366" rx="2.40857954" ry="2.60364731"></ellipse>
                </g>
                <g id="Group-Copy-7" transform="translate(90.363813, 72.983985) rotate(-202.500000) translate(-90.363813, -72.983985) translate(68.863813, 64.983985)" fill="#009546">
                    <ellipse id="Oval-2" cx="7.240939" cy="8.15223706" rx="7.22573861" ry="7.81094194"></ellipse>
                    <ellipse id="Oval-2-Copy" cx="20.7289844" cy="6.06931921" rx="4.81715907" ry="5.20729463"></ellipse>
                    <ellipse id="Oval-2-Copy-2" cx="31.5675923" cy="8.41260179" rx="3.6128693" ry="3.90547097"></ellipse>
                    <ellipse id="Oval-2-Copy-3" cx="39.9976207" cy="13.3595317" rx="2.40857954" ry="2.60364731"></ellipse>
                </g>
            </g>
        </g>
        <text id="{" font-family="Lato-Bold, Lato" font-size="47.8693733" font-weight="bold" fill="#104A94">
            <tspan x="0" y="77.0356128">{</tspan>
        </text>
        <text id="}" font-family="Lato-Bold, Lato" font-size="47.8693733" font-weight="bold" fill="#104A94">
            <tspan x="128.618147" y="77.0356128">}</tspan>
        </text>
    </g>
</svg>
